<?xml version="1.0" encoding="utf-8"?>
<!-- Generator: Adobe Illustrator 16.0.0, SVG Export Plug-In . SVG Version: 6.00 Build 0)  -->
<!DOCTYPE svg PUBLIC "-//W3C//DTD SVG 1.1//EN" "http://www.w3.org/Graphics/SVG/1.1/DTD/svg11.dtd">
<svg version="1.1" id="图层_1" xmlns="http://www.w3.org/2000/svg" xmlns:xlink="http://www.w3.org/1999/xlink" x="0px" y="0px"
	 width="522.333px" height="315px" viewBox="0 0 522.333 315" enable-background="new 0 0 522.333 315" xml:space="preserve">
<text transform="matrix(1 0 0 1 218.7065 18.9346)" font-family="'AdobeSongStd-Light-GBpc-EUC-H'" font-size="15.96">诊断故障码</text>
<text transform="matrix(1 0 0 1 298.7456 18.9346)" font-family="'AdobeSongStd-Light-GBpc-EUC-H'" font-size="15.96">表</text>
<text transform="matrix(1 0 0 1 6.1265 36.6211)" font-family="'AdobeSongStd-Light-GBpc-EUC-H'" font-size="10.98">电</text>
<text transform="matrix(1 0 0 1 17.1064 36.6211)" font-family="'AdobeSongStd-Light-GBpc-EUC-H'" font-size="10.98">动</text>
<text transform="matrix(1 0 0 1 28.1416 36.6211)" font-family="'AdobeSongStd-Light-GBpc-EUC-H'" font-size="10.98">车窗</text>
<text transform="matrix(1 0 0 1 50.1016 36.6211)" font-family="'AdobeSongStd-Light-GBpc-EUC-H'" font-size="10.98">控</text>
<text transform="matrix(1 0 0 1 61.1367 36.6211)" font-family="'AdobeSongStd-Light-GBpc-EUC-H'" font-size="10.98">制系统</text>
<text transform="matrix(1 0 0 1 52.5063 50.5771)" font-family="'ArialMT'" font-size="7.98">D</text>
<text transform="matrix(1 0 0 1 58.4375 50.5771)" font-family="'ArialMT'" font-size="7.98">T</text>
<text transform="matrix(1 0 0 1 63.2417 50.5771)" font-family="'ArialMT'" font-size="7.98">C</text>
<text transform="matrix(1 0 0 1 69.1724 50.5771)" font-family="'ArialMT'" font-size="7.98"> </text>
<g>
	<text transform="matrix(1 0 0 1 456.186 50.0967)" font-family="'AdobeSongStd-Light-GBpc-EUC-H'" font-size="7.98">页</text>
	<text transform="matrix(1 0 0 1 448.2065 50.0967)" font-family="'AdobeSongStd-Light-GBpc-EUC-H'" font-size="7.98">考</text>
	<text transform="matrix(1 0 0 1 440.1665 50.0967)" font-family="'AdobeSongStd-Light-GBpc-EUC-H'" font-size="7.98">参</text>
	<text transform="matrix(1 0 0 1 332.7056 50.0967)" font-family="'AdobeSongStd-Light-GBpc-EUC-H'" font-size="7.98">位</text>
	<text transform="matrix(1 0 0 1 324.7261 50.0967)" font-family="'AdobeSongStd-Light-GBpc-EUC-H'" font-size="7.98">部</text>
	<text transform="matrix(1 0 0 1 316.7456 50.0967)" font-family="'AdobeSongStd-Light-GBpc-EUC-H'" font-size="7.98">障</text>
	<text transform="matrix(1 0 0 1 308.7056 50.0967)" font-family="'AdobeSongStd-Light-GBpc-EUC-H'" font-size="7.98">故</text>
	<text transform="matrix(1 0 0 1 205.2661 50.0967)" font-family="'AdobeSongStd-Light-GBpc-EUC-H'" font-size="7.98">目</text>
	<text transform="matrix(1 0 0 1 197.2861 50.0967)" font-family="'AdobeSongStd-Light-GBpc-EUC-H'" font-size="7.98">项</text>
	<text transform="matrix(1 0 0 1 189.3062 50.0967)" font-family="'AdobeSongStd-Light-GBpc-EUC-H'" font-size="7.98">测</text>
	<text transform="matrix(1 0 0 1 181.2661 50.0967)" font-family="'AdobeSongStd-Light-GBpc-EUC-H'" font-size="7.98">检</text>
	<text transform="matrix(1 0 0 1 79.146 50.0967)" font-family="'AdobeSongStd-Light-GBpc-EUC-H'" font-size="7.98">码</text>
	<text transform="matrix(1 0 0 1 71.166 50.0967)" font-family="'AdobeSongStd-Light-GBpc-EUC-H'" font-size="7.98">代</text>
</g>
<text transform="matrix(1 0 0 1 58.5664 64.5557)" font-family="'ArialMT'" font-size="7.98">B23</text>
<text transform="matrix(1 0 0 1 72.3398 64.5557)" font-family="'ArialMT'" font-size="7.98">1</text>
<text transform="matrix(1 0 0 1 76.2896 64.5557)" font-family="'ArialMT'" font-size="7.98">1</text>
<text transform="matrix(1 0 0 1 137.5869 66.2061)" font-family="'AdobeSongStd-Light-GBpc-EUC-H'" font-size="7.98">驾驶</text>
<text transform="matrix(1 0 0 1 153.5469 66.2061)" font-family="'AdobeSongStd-Light-GBpc-EUC-H'" font-size="7.98">员</text>
<text transform="matrix(1 0 0 1 161.583 66.2061)" font-family="'AdobeSongStd-Light-GBpc-EUC-H'" font-size="7.98">车门</text>
<text transform="matrix(1 0 0 1 177.543 66.2061)" font-family="'AdobeSongStd-Light-GBpc-EUC-H'" font-size="7.98">电</text>
<text transform="matrix(1 0 0 1 185.5791 66.2061)" font-family="'AdobeSongStd-Light-GBpc-EUC-H'" font-size="7.98">动机</text>
<text transform="matrix(1 0 0 1 201.5391 66.2061)" font-family="'AdobeSongStd-Light-GBpc-EUC-H'" font-size="7.98">故</text>
<text transform="matrix(1 0 0 1 209.5742 66.2061)" font-family="'AdobeSongStd-Light-GBpc-EUC-H'" font-size="7.98">障</text>
<text transform="matrix(1 0 0 1 265.0269 66.1162)" font-family="'ArialMT'" font-size="7.98">1. </text>
<text transform="matrix(1 0 0 1 273.9067 66.2061)" font-family="'AdobeSongStd-Light-GBpc-EUC-H'" font-size="7.98">当</text>
<text transform="matrix(1 0 0 1 281.8872 66.2061)" font-family="'AdobeSongStd-Light-GBpc-EUC-H'" font-size="7.98">点</text>
<text transform="matrix(1 0 0 1 289.9224 66.2061)" font-family="'AdobeSongStd-Light-GBpc-EUC-H'" font-size="7.98">火开</text>
<text transform="matrix(1 0 0 1 305.8833 66.2061)" font-family="'AdobeSongStd-Light-GBpc-EUC-H'" font-size="7.98">关</text>
<text transform="matrix(1 0 0 1 313.9185 66.2061)" font-family="'AdobeSongStd-Light-GBpc-EUC-H'" font-size="7.98">置于</text>
<text transform="matrix(1 0 0 1 329.8862 66.1162)" font-family="'ArialMT'" font-size="7.98"> </text>
<text transform="matrix(1 0 0 1 331.6733 66.1162)" font-family="'ArialMT'" font-size="7.98">ON</text>
<text transform="matrix(1 0 0 1 343.1411 66.1162)" font-family="'ArialMT'" font-size="7.98"> </text>
<text transform="matrix(1 0 0 1 344.9282 66.1162)" font-family="'ArialMT'" font-size="7.98">(I</text>
<text transform="matrix(1 0 0 1 349.7085 66.1162)" font-family="'ArialMT'" font-size="7.98">G</text>
<text transform="matrix(1 0 0 1 355.1821 66.1162)" font-family="'ArialMT'" font-size="7.98">)</text>
<text transform="matrix(1 0 0 1 357.7915 66.1162)" font-family="'ArialMT'" font-size="7.98"> </text>
<text transform="matrix(1 0 0 1 362.3472 65.6357)" font-family="'AdobeSongStd-Light-GBpc-EUC-H'" font-size="7.98">位置</text>
<text transform="matrix(1 0 0 1 265.0269 77.7861)" font-family="'AdobeSongStd-Light-GBpc-EUC-H'" font-size="7.98">时蓄</text>
<text transform="matrix(1 0 0 1 280.9868 77.7861)" font-family="'AdobeSongStd-Light-GBpc-EUC-H'" font-size="7.98">电</text>
<text transform="matrix(1 0 0 1 289.0229 77.7861)" font-family="'AdobeSongStd-Light-GBpc-EUC-H'" font-size="7.98">池断开</text>
<text transform="matrix(1 0 0 1 265.0269 87.6563)" font-family="'ArialMT'" font-size="7.98">2. </text>
<text transform="matrix(1 0 0 1 273.9067 87.7451)" font-family="'AdobeSongStd-Light-GBpc-EUC-H'" font-size="7.98">电</text>
<text transform="matrix(1 0 0 1 281.8872 87.7451)" font-family="'AdobeSongStd-Light-GBpc-EUC-H'" font-size="7.98">动</text>
<text transform="matrix(1 0 0 1 289.9224 87.7451)" font-family="'AdobeSongStd-Light-GBpc-EUC-H'" font-size="7.98">车窗</text>
<text transform="matrix(1 0 0 1 305.8833 87.7451)" font-family="'AdobeSongStd-Light-GBpc-EUC-H'" font-size="7.98">升</text>
<text transform="matrix(1 0 0 1 313.9185 87.7451)" font-family="'AdobeSongStd-Light-GBpc-EUC-H'" font-size="7.98">降器</text>
<text transform="matrix(1 0 0 1 329.8794 87.7451)" font-family="'AdobeSongStd-Light-GBpc-EUC-H'" font-size="7.98">电</text>
<text transform="matrix(1 0 0 1 337.9146 87.7451)" font-family="'AdobeSongStd-Light-GBpc-EUC-H'" font-size="7.98">动</text>
<text transform="matrix(1 0 0 1 345.894 87.7451)" font-family="'AdobeSongStd-Light-GBpc-EUC-H'" font-size="7.98" letter-spacing="1">机</text>
<text transform="matrix(1 0 0 1 355.9087 87.7451)" font-family="'AdobeSongStd-Light-GBpc-EUC-H'" font-size="7.98">（驾驶</text>
<text transform="matrix(1 0 0 1 265.0269 98.7549)" font-family="'AdobeSongStd-Light-GBpc-EUC-H'" font-size="7.98">员侧）</text>
<text transform="matrix(1 0 0 1 265.0269 109.1953)" font-family="'ArialMT'" font-size="7.98">3. </text>
<text transform="matrix(1 0 0 1 273.9067 109.2852)" font-family="'AdobeSongStd-Light-GBpc-EUC-H'" font-size="7.98">电</text>
<text transform="matrix(1 0 0 1 281.8872 109.2852)" font-family="'AdobeSongStd-Light-GBpc-EUC-H'" font-size="7.98">动</text>
<text transform="matrix(1 0 0 1 289.9224 109.2852)" font-family="'AdobeSongStd-Light-GBpc-EUC-H'" font-size="7.98">车窗</text>
<text transform="matrix(1 0 0 1 305.8833 109.2852)" font-family="'AdobeSongStd-Light-GBpc-EUC-H'" font-size="7.98">零</text>
<text transform="matrix(1 0 0 1 313.9185 109.2852)" font-family="'AdobeSongStd-Light-GBpc-EUC-H'" font-size="7.98">部件</text>
<text transform="matrix(1 0 0 1 329.8794 109.2852)" font-family="'AdobeSongStd-Light-GBpc-EUC-H'" font-size="7.98">安</text>
<text transform="matrix(1 0 0 1 337.9146 109.2852)" font-family="'AdobeSongStd-Light-GBpc-EUC-H'" font-size="7.98">装错误</text>
<text transform="matrix(1 0 0 1 265.0269 120.7754)" font-family="'ArialMT'" font-size="7.98">4. </text>
<text transform="matrix(1 0 0 1 273.9067 120.8643)" font-family="'AdobeSongStd-Light-GBpc-EUC-H'" font-size="7.98">电</text>
<text transform="matrix(1 0 0 1 281.8872 120.8643)" font-family="'AdobeSongStd-Light-GBpc-EUC-H'" font-size="7.98">动</text>
<text transform="matrix(1 0 0 1 289.9224 120.8643)" font-family="'AdobeSongStd-Light-GBpc-EUC-H'" font-size="7.98">车窗</text>
<text transform="matrix(1 0 0 1 305.8833 120.8643)" font-family="'AdobeSongStd-Light-GBpc-EUC-H'" font-size="7.98">升</text>
<text transform="matrix(1 0 0 1 313.9185 120.8643)" font-family="'AdobeSongStd-Light-GBpc-EUC-H'" font-size="7.98">降器</text>
<text transform="matrix(1 0 0 1 329.8794 120.8643)" font-family="'AdobeSongStd-Light-GBpc-EUC-H'" font-size="7.98">电</text>
<text transform="matrix(1 0 0 1 337.9146 120.8643)" font-family="'AdobeSongStd-Light-GBpc-EUC-H'" font-size="7.98">动</text>
<text transform="matrix(1 0 0 1 345.894 120.8643)" font-family="'AdobeSongStd-Light-GBpc-EUC-H'" font-size="7.98" letter-spacing="1">机</text>
<text transform="matrix(1 0 0 1 355.9087 120.8643)" font-family="'AdobeSongStd-Light-GBpc-EUC-H'" font-size="7.98">（驾驶</text>
<text transform="matrix(1 0 0 1 265.0269 132.3848)" font-family="'AdobeSongStd-Light-GBpc-EUC-H'" font-size="7.98">员侧</text>
<text transform="matrix(1 0 0 1 280.9868 132.3848)" font-family="'AdobeSongStd-Light-GBpc-EUC-H'" font-size="7.98">）</text>
<text transform="matrix(1 0 0 1 289.0229 132.3848)" font-family="'AdobeSongStd-Light-GBpc-EUC-H'" font-size="7.98">过热</text>
<text transform="matrix(1 0 0 1 58.2666 144.7148)" font-family="'ArialMT'" font-size="7.98">B23</text>
<text transform="matrix(1 0 0 1 72.04 144.7148)" font-family="'ArialMT'" font-size="7.98">1</text>
<text transform="matrix(1 0 0 1 76.5806 144.7148)" font-family="'ArialMT'" font-size="7.98">2</text>
<text transform="matrix(1 0 0 1 137.5869 146.3643)" font-family="'AdobeSongStd-Light-GBpc-EUC-H'" font-size="7.98">驾驶</text>
<text transform="matrix(1 0 0 1 153.5469 146.3643)" font-family="'AdobeSongStd-Light-GBpc-EUC-H'" font-size="7.98">员</text>
<text transform="matrix(1 0 0 1 161.583 146.3643)" font-family="'AdobeSongStd-Light-GBpc-EUC-H'" font-size="7.98">侧车</text>
<text transform="matrix(1 0 0 1 177.543 146.3643)" font-family="'AdobeSongStd-Light-GBpc-EUC-H'" font-size="7.98">门</text>
<text transform="matrix(1 0 0 1 185.5791 146.3643)" font-family="'AdobeSongStd-Light-GBpc-EUC-H'" font-size="7.98">主开</text>
<text transform="matrix(1 0 0 1 201.5391 146.3643)" font-family="'AdobeSongStd-Light-GBpc-EUC-H'" font-size="7.98">关</text>
<text transform="matrix(1 0 0 1 209.5742 146.3643)" font-family="'AdobeSongStd-Light-GBpc-EUC-H'" font-size="7.98">故障</text>
<text transform="matrix(1 0 0 1 265.0269 146.2744)" font-family="'ArialMT'" font-size="7.98">1. </text>
<text transform="matrix(1 0 0 1 273.9067 146.3643)" font-family="'AdobeSongStd-Light-GBpc-EUC-H'" font-size="7.98">电</text>
<text transform="matrix(1 0 0 1 281.8872 146.3643)" font-family="'AdobeSongStd-Light-GBpc-EUC-H'" font-size="7.98">动</text>
<text transform="matrix(1 0 0 1 289.9224 146.3643)" font-family="'AdobeSongStd-Light-GBpc-EUC-H'" font-size="7.98">车窗</text>
<text transform="matrix(1 0 0 1 305.8833 146.3643)" font-family="'AdobeSongStd-Light-GBpc-EUC-H'" font-size="7.98">升</text>
<text transform="matrix(1 0 0 1 313.9185 146.3643)" font-family="'AdobeSongStd-Light-GBpc-EUC-H'" font-size="7.98">降器</text>
<text transform="matrix(1 0 0 1 329.8794 146.3643)" font-family="'AdobeSongStd-Light-GBpc-EUC-H'" font-size="7.98">电</text>
<text transform="matrix(1 0 0 1 337.9146 146.3643)" font-family="'AdobeSongStd-Light-GBpc-EUC-H'" font-size="7.98">动</text>
<text transform="matrix(1 0 0 1 345.894 146.3643)" font-family="'AdobeSongStd-Light-GBpc-EUC-H'" font-size="7.98" letter-spacing="1">机</text>
<text transform="matrix(1 0 0 1 355.9087 146.3643)" font-family="'AdobeSongStd-Light-GBpc-EUC-H'" font-size="7.98">（驾驶</text>
<text transform="matrix(1 0 0 1 265.0269 157.374)" font-family="'AdobeSongStd-Light-GBpc-EUC-H'" font-size="7.98">员侧）</text>
<text transform="matrix(1 0 0 1 265.0269 167.8145)" font-family="'ArialMT'" font-size="7.98">2. </text>
<text transform="matrix(1 0 0 1 273.9067 167.9053)" font-family="'AdobeSongStd-Light-GBpc-EUC-H'" font-size="7.98">电</text>
<text transform="matrix(1 0 0 1 281.8872 167.9053)" font-family="'AdobeSongStd-Light-GBpc-EUC-H'" font-size="7.98">动</text>
<text transform="matrix(1 0 0 1 289.9224 167.9053)" font-family="'AdobeSongStd-Light-GBpc-EUC-H'" font-size="7.98">车窗</text>
<text transform="matrix(1 0 0 1 305.8833 167.9053)" font-family="'AdobeSongStd-Light-GBpc-EUC-H'" font-size="7.98">主</text>
<text transform="matrix(1 0 0 1 313.9185 167.9053)" font-family="'AdobeSongStd-Light-GBpc-EUC-H'" font-size="7.98">开关</text>
<text transform="matrix(1 0 0 1 329.8862 167.8145)" font-family="'ArialMT'" font-size="7.98"> </text>
<text transform="matrix(1 0 0 1 265.0269 179.3936)" font-family="'ArialMT'" font-size="7.98">3. </text>
<text transform="matrix(1 0 0 1 273.9067 179.4834)" font-family="'AdobeSongStd-Light-GBpc-EUC-H'" font-size="7.98">线</text>
<text transform="matrix(1 0 0 1 281.8872 179.4834)" font-family="'AdobeSongStd-Light-GBpc-EUC-H'" font-size="7.98">束</text>
<text transform="matrix(1 0 0 1 289.9224 179.4834)" font-family="'AdobeSongStd-Light-GBpc-EUC-H'" font-size="7.98">或连</text>
<text transform="matrix(1 0 0 1 305.8833 179.4834)" font-family="'AdobeSongStd-Light-GBpc-EUC-H'" font-size="7.98">接</text>
<text transform="matrix(1 0 0 1 313.9185 179.4834)" font-family="'AdobeSongStd-Light-GBpc-EUC-H'" font-size="7.98">器</text>
<text transform="matrix(1 0 0 1 265.0269 190.9141)" font-family="'ArialMT'" font-size="7.98">4. </text>
<text transform="matrix(1 0 0 1 273.9067 191.0029)" font-family="'AdobeSongStd-Light-GBpc-EUC-H'" font-size="7.98">在</text>
<text transform="matrix(1 0 0 1 281.8872 191.0029)" font-family="'AdobeSongStd-Light-GBpc-EUC-H'" font-size="7.98">同</text>
<text transform="matrix(1 0 0 1 289.9224 191.0029)" font-family="'AdobeSongStd-Light-GBpc-EUC-H'" font-size="7.98">一位</text>
<text transform="matrix(1 0 0 1 305.8833 191.0029)" font-family="'AdobeSongStd-Light-GBpc-EUC-H'" font-size="7.98">置</text>
<text transform="matrix(1 0 0 1 313.9185 191.0029)" font-family="'AdobeSongStd-Light-GBpc-EUC-H'" font-size="7.98">按住</text>
<text transform="matrix(1 0 0 1 329.8794 191.0029)" font-family="'AdobeSongStd-Light-GBpc-EUC-H'" font-size="7.98">电</text>
<text transform="matrix(1 0 0 1 337.9146 191.0029)" font-family="'AdobeSongStd-Light-GBpc-EUC-H'" font-size="7.98">动车</text>
<text transform="matrix(1 0 0 1 353.8755 191.0029)" font-family="'AdobeSongStd-Light-GBpc-EUC-H'" font-size="7.98">窗</text>
<text transform="matrix(1 0 0 1 361.9097 191.0029)" font-family="'AdobeSongStd-Light-GBpc-EUC-H'" font-size="7.98">主开</text>
<text transform="matrix(1 0 0 1 265.0269 201.9531)" font-family="'AdobeSongStd-Light-GBpc-EUC-H'" font-size="7.98">关超过</text>
<text transform="matrix(1 0 0 1 289.0269 202.4336)" font-family="'ArialMT'" font-size="7.98"> 20 </text>
<text transform="matrix(1 0 0 1 302.3472 201.9531)" font-family="'AdobeSongStd-Light-GBpc-EUC-H'" font-size="7.98">秒钟</text>
<text transform="matrix(1 0 0 1 58.2666 216.4736)" font-family="'ArialMT'" font-size="7.98">B23</text>
<text transform="matrix(1 0 0 1 72.04 216.4736)" font-family="'ArialMT'" font-size="7.98">1</text>
<text transform="matrix(1 0 0 1 76.5806 216.4736)" font-family="'ArialMT'" font-size="7.98">3</text>
<text transform="matrix(1 0 0 1 137.5869 218.0635)" font-family="'AdobeSongStd-Light-GBpc-EUC-H'" font-size="7.98">玻璃</text>
<text transform="matrix(1 0 0 1 153.5469 218.0635)" font-family="'AdobeSongStd-Light-GBpc-EUC-H'" font-size="7.98">位</text>
<text transform="matrix(1 0 0 1 161.583 218.0635)" font-family="'AdobeSongStd-Light-GBpc-EUC-H'" font-size="7.98">置初</text>
<text transform="matrix(1 0 0 1 177.543 218.0635)" font-family="'AdobeSongStd-Light-GBpc-EUC-H'" font-size="7.98">始</text>
<text transform="matrix(1 0 0 1 185.5791 218.0635)" font-family="'AdobeSongStd-Light-GBpc-EUC-H'" font-size="7.98">化未</text>
<text transform="matrix(1 0 0 1 201.5391 218.0635)" font-family="'AdobeSongStd-Light-GBpc-EUC-H'" font-size="7.98">完</text>
<text transform="matrix(1 0 0 1 209.5742 218.0635)" font-family="'AdobeSongStd-Light-GBpc-EUC-H'" font-size="7.98">成</text>
<text transform="matrix(1 0 0 1 265.0269 217.9746)" font-family="'ArialMT'" font-size="7.98">1. </text>
<text transform="matrix(1 0 0 1 273.9067 218.0635)" font-family="'AdobeSongStd-Light-GBpc-EUC-H'" font-size="7.98">电</text>
<text transform="matrix(1 0 0 1 281.8872 218.0635)" font-family="'AdobeSongStd-Light-GBpc-EUC-H'" font-size="7.98">动</text>
<text transform="matrix(1 0 0 1 289.9224 218.0635)" font-family="'AdobeSongStd-Light-GBpc-EUC-H'" font-size="7.98">车窗</text>
<text transform="matrix(1 0 0 1 305.8833 218.0635)" font-family="'AdobeSongStd-Light-GBpc-EUC-H'" font-size="7.98">升</text>
<text transform="matrix(1 0 0 1 313.9185 218.0635)" font-family="'AdobeSongStd-Light-GBpc-EUC-H'" font-size="7.98">降器</text>
<text transform="matrix(1 0 0 1 329.8794 218.0635)" font-family="'AdobeSongStd-Light-GBpc-EUC-H'" font-size="7.98">电</text>
<text transform="matrix(1 0 0 1 337.9146 218.0635)" font-family="'AdobeSongStd-Light-GBpc-EUC-H'" font-size="7.98">动</text>
<text transform="matrix(1 0 0 1 345.894 218.0635)" font-family="'AdobeSongStd-Light-GBpc-EUC-H'" font-size="7.98" letter-spacing="1">机</text>
<text transform="matrix(1 0 0 1 355.9087 218.0635)" font-family="'AdobeSongStd-Light-GBpc-EUC-H'" font-size="7.98">（驾驶</text>
<text transform="matrix(1 0 0 1 265.0269 229.0732)" font-family="'AdobeSongStd-Light-GBpc-EUC-H'" font-size="7.98">员侧）</text>
<text transform="matrix(1 0 0 1 265.0269 239.5137)" font-family="'ArialMT'" font-size="7.98">2. </text>
<text transform="matrix(1 0 0 1 273.9067 239.6025)" font-family="'AdobeSongStd-Light-GBpc-EUC-H'" font-size="7.98">电</text>
<text transform="matrix(1 0 0 1 281.8872 239.6025)" font-family="'AdobeSongStd-Light-GBpc-EUC-H'" font-size="7.98">动</text>
<text transform="matrix(1 0 0 1 289.9224 239.6025)" font-family="'AdobeSongStd-Light-GBpc-EUC-H'" font-size="7.98">车窗</text>
<text transform="matrix(1 0 0 1 305.8833 239.6025)" font-family="'AdobeSongStd-Light-GBpc-EUC-H'" font-size="7.98">升</text>
<text transform="matrix(1 0 0 1 313.9185 239.6025)" font-family="'AdobeSongStd-Light-GBpc-EUC-H'" font-size="7.98">降器</text>
<text transform="matrix(1 0 0 1 329.8794 239.6025)" font-family="'AdobeSongStd-Light-GBpc-EUC-H'" font-size="7.98">电</text>
<text transform="matrix(1 0 0 1 337.9146 239.6025)" font-family="'AdobeSongStd-Light-GBpc-EUC-H'" font-size="7.98">动</text>
<text transform="matrix(1 0 0 1 345.894 239.6025)" font-family="'AdobeSongStd-Light-GBpc-EUC-H'" font-size="7.98" letter-spacing="1">机</text>
<text transform="matrix(1 0 0 1 355.9087 239.6025)" font-family="'AdobeSongStd-Light-GBpc-EUC-H'" font-size="7.98">（驾驶</text>
<text transform="matrix(1 0 0 1 265.0269 251.1826)" font-family="'AdobeSongStd-Light-GBpc-EUC-H'" font-size="7.98">员侧</text>
<text transform="matrix(1 0 0 1 280.9868 251.1826)" font-family="'AdobeSongStd-Light-GBpc-EUC-H'" font-size="7.98">）</text>
<text transform="matrix(1 0 0 1 289.0229 251.1826)" font-family="'AdobeSongStd-Light-GBpc-EUC-H'" font-size="7.98">未初</text>
<text transform="matrix(1 0 0 1 304.9829 251.1826)" font-family="'AdobeSongStd-Light-GBpc-EUC-H'" font-size="7.98">始</text>
<text transform="matrix(1 0 0 1 313.0181 251.1826)" font-family="'AdobeSongStd-Light-GBpc-EUC-H'" font-size="7.98">化</text>
<text transform="matrix(1 0 0 1 58.2666 263.5127)" font-family="'ArialMT'" font-size="7.98">B23</text>
<text transform="matrix(1 0 0 1 72.04 263.5127)" font-family="'ArialMT'" font-size="7.98">2</text>
<text transform="matrix(1 0 0 1 76.5806 263.5127)" font-family="'ArialMT'" font-size="7.98">1</text>
<text transform="matrix(1 0 0 1 137.5869 265.1631)" font-family="'AdobeSongStd-Light-GBpc-EUC-H'" font-size="7.98">驾驶</text>
<text transform="matrix(1 0 0 1 153.5469 265.1631)" font-family="'AdobeSongStd-Light-GBpc-EUC-H'" font-size="7.98">员</text>
<text transform="matrix(1 0 0 1 161.583 265.1631)" font-family="'AdobeSongStd-Light-GBpc-EUC-H'" font-size="7.98">侧车门</text>
<text transform="matrix(1 0 0 1 185.5864 265.0732)" font-family="'ArialMT'" font-size="7.98"> ECU </text>
<text transform="matrix(1 0 0 1 206.8867 265.1631)" font-family="'AdobeSongStd-Light-GBpc-EUC-H'" font-size="7.98">通</text>
<text transform="matrix(1 0 0 1 214.8667 265.1631)" font-family="'AdobeSongStd-Light-GBpc-EUC-H'" font-size="7.98">信</text>
<text transform="matrix(1 0 0 1 222.9028 265.1631)" font-family="'AdobeSongStd-Light-GBpc-EUC-H'" font-size="7.98">终止</text>
<text transform="matrix(1 0 0 1 265.0269 265.0732)" font-family="'ArialMT'" font-size="7.98">1. </text>
<text transform="matrix(1 0 0 1 273.9067 265.1631)" font-family="'AdobeSongStd-Light-GBpc-EUC-H'" font-size="7.98">电</text>
<text transform="matrix(1 0 0 1 281.8872 265.1631)" font-family="'AdobeSongStd-Light-GBpc-EUC-H'" font-size="7.98">动</text>
<text transform="matrix(1 0 0 1 289.9224 265.1631)" font-family="'AdobeSongStd-Light-GBpc-EUC-H'" font-size="7.98">车窗</text>
<text transform="matrix(1 0 0 1 305.8833 265.1631)" font-family="'AdobeSongStd-Light-GBpc-EUC-H'" font-size="7.98">升</text>
<text transform="matrix(1 0 0 1 313.9185 265.1631)" font-family="'AdobeSongStd-Light-GBpc-EUC-H'" font-size="7.98">降器</text>
<text transform="matrix(1 0 0 1 329.8794 265.1631)" font-family="'AdobeSongStd-Light-GBpc-EUC-H'" font-size="7.98">电</text>
<text transform="matrix(1 0 0 1 337.9146 265.1631)" font-family="'AdobeSongStd-Light-GBpc-EUC-H'" font-size="7.98">动</text>
<text transform="matrix(1 0 0 1 345.894 265.1631)" font-family="'AdobeSongStd-Light-GBpc-EUC-H'" font-size="7.98" letter-spacing="1">机</text>
<text transform="matrix(1 0 0 1 355.9087 265.1631)" font-family="'AdobeSongStd-Light-GBpc-EUC-H'" font-size="7.98">（驾驶</text>
<text transform="matrix(1 0 0 1 265.0269 276.1123)" font-family="'AdobeSongStd-Light-GBpc-EUC-H'" font-size="7.98">员侧）</text>
<text transform="matrix(1 0 0 1 265.0269 286.6123)" font-family="'ArialMT'" font-size="7.98">2. </text>
<text transform="matrix(1 0 0 1 273.9067 286.7021)" font-family="'AdobeSongStd-Light-GBpc-EUC-H'" font-size="7.98">主</text>
<text transform="matrix(1 0 0 1 281.8872 286.7021)" font-family="'AdobeSongStd-Light-GBpc-EUC-H'" font-size="7.98">车</text>
<text transform="matrix(1 0 0 1 289.9224 286.7021)" font-family="'AdobeSongStd-Light-GBpc-EUC-H'" font-size="7.98">身</text>
<text transform="matrix(1 0 0 1 297.9067 286.6123)" font-family="'ArialMT'" font-size="7.98"> ECU</text>
<text transform="matrix(1 0 0 1 319.0269 286.7021)" font-family="'AdobeSongStd-Light-GBpc-EUC-H'" font-size="7.98">（仪</text>
<text transform="matrix(1 0 0 1 334.9868 286.7021)" font-family="'AdobeSongStd-Light-GBpc-EUC-H'" font-size="7.98">表</text>
<text transform="matrix(1 0 0 1 343.0229 286.7021)" font-family="'AdobeSongStd-Light-GBpc-EUC-H'" font-size="7.98">板接</text>
<text transform="matrix(1 0 0 1 358.9829 286.7021)" font-family="'AdobeSongStd-Light-GBpc-EUC-H'" font-size="7.98">线</text>
<text transform="matrix(1 0 0 1 367.0181 286.7021)" font-family="'AdobeSongStd-Light-GBpc-EUC-H'" font-size="7.98">盒）</text>
<text transform="matrix(1 0 0 1 265.0269 298.1318)" font-family="'ArialMT'" font-size="7.98">3. </text>
<text transform="matrix(1 0 0 1 273.9067 298.2217)" font-family="'AdobeSongStd-Light-GBpc-EUC-H'" font-size="7.98">线</text>
<text transform="matrix(1 0 0 1 281.8872 298.2217)" font-family="'AdobeSongStd-Light-GBpc-EUC-H'" font-size="7.98">束</text>
<text transform="matrix(1 0 0 1 289.9224 298.2217)" font-family="'AdobeSongStd-Light-GBpc-EUC-H'" font-size="7.98">或连</text>
<text transform="matrix(1 0 0 1 305.8833 298.2217)" font-family="'AdobeSongStd-Light-GBpc-EUC-H'" font-size="7.98">接</text>
<text transform="matrix(1 0 0 1 313.9185 298.2217)" font-family="'AdobeSongStd-Light-GBpc-EUC-H'" font-size="7.98">器</text>
<rect x="5.887" y="39.957" width="0.48" height="262.62"/>
<rect x="133.327" y="39.477" width="0.48" height="263.58"/>
<rect x="260.767" y="39.477" width="0.48" height="263.58"/>
<rect x="388.208" y="39.477" width="0.48" height="263.58"/>
<rect x="515.647" y="39.957" width="0.48" height="262.62"/>
<rect x="5.887" y="39.477" width="510.24" height="0.48"/>
<rect x="6.367" y="54.237" width="509.28" height="0.479"/>
<rect x="6.367" y="55.737" width="509.28" height="0.479"/>
<rect x="5.887" y="135.177" width="510.24" height="0.48"/>
<rect x="5.887" y="206.877" width="510.24" height="0.48"/>
<rect x="5.887" y="253.977" width="510.24" height="0.48"/>
<rect x="5.887" y="302.577" width="510.24" height="0.479"/>
<text transform="matrix(2.1328 0 0 1 450.853 80.7334)" font-family="'ArialMT'" font-size="8.0579">-</text>
<text transform="matrix(2.1328 0 0 1 450.8501 163.8701)" font-family="'ArialMT'" font-size="8.0579">-</text>
<text transform="matrix(2.1328 0 0 1 450.8501 230.5889)" font-family="'ArialMT'" font-size="8.0579">-</text>
<text transform="matrix(2.1328 0 0 1 450.8501 278.0869)" font-family="'ArialMT'" font-size="8.0579">-</text>
</svg>
